<svg viewBox="0 0 16 16" xmlns="http://www.w3.org/2000/svg"><path d="M9.204 3.374a1.198 1.198 0 0 1-.853-.886c-.098-.398-.438-.7-.837-.806l-1.468-.394a1.2 1.2 0 0 0-1.466.847L2.1 11.384a1.19 1.19 0 0 0 .842 1.458l1.475.396c.398.106.843.02 1.122-.282.3-.31.747-.45 1.186-.333.44.118.76.47.853.885.098.398.438.7.837.807l1.469.394a1.2 1.2 0 0 0 1.466-.847l2.478-9.25a1.2 1.2 0 0 0-.846-1.465l-1.469-.394c-.399-.106-.844-.015-1.128.28a1.198 1.198 0 0 1-1.182.34Zm1.518 3.814L9.41 8.386l.544 1.694c.08.257-.199.486-.434.349l-1.549-.88-1.443 1.038a.3.3 0 0 1-.47-.305l.36-1.738-1.422-1.05c-.216-.163-.123-.51.144-.538l1.763-.196.557-1.685c.087-.256.446-.277.56-.03l.73 1.62 1.77.004c.28 0 .406.338.203.52Z" fill="#8A8A98"/></svg>
