<svg fill="none" xmlns="http://www.w3.org/2000/svg" viewBox="0 0 32 32"><circle cx="16" cy="16" r="16" fill="#009393"/><path fill-rule="evenodd" clip-rule="evenodd" d="M23.66 9v2.84H17.9v1.96c4.04.21 7.07 1.08 7.09 2.11v2.16c-.02 1.03-3.05 1.9-7.1 2.1V25h-3.8v-4.83c-4.05-.2-7.08-1.07-7.1-2.1V15.9c.02-1.03 3.05-1.9 7.1-2.1v-1.97H8.33V9h15.32ZM16 18.7c4.31 0 7.91-.74 8.8-1.71-.75-.83-3.46-1.48-6.9-1.66v2.06a36.82 36.82 0 0 1-3.8 0v-2.06c-3.44.18-6.15.83-6.9 1.66.89.97 4.49 1.7 8.8 1.7Z" fill="#009393"/><path fill-rule="evenodd" clip-rule="evenodd" d="M23.66 9v2.84H17.9v1.96c4.04.21 7.07 1.08 7.09 2.11v2.16c-.02 1.03-3.05 1.9-7.1 2.1V25h-3.8v-4.83c-4.05-.2-7.08-1.07-7.1-2.1V15.9c.02-1.03 3.05-1.9 7.1-2.1v-1.97H8.33V9h15.32Zm1.13 7.99c-.88.97-4.48 1.7-8.79 1.7-4.31 0-7.91-.73-8.8-1.7.75-.83 3.46-1.48 6.9-1.66v2.06a36.83 36.83 0 0 0 3.8 0v-2.06c3.44.18 6.15.83 6.9 1.66Z" fill="#fff"/></svg>
